<svg xmlns="http://www.w3.org/2000/svg" viewBox="0 0 32 32">
  <rect width="32" height="32" rx="4" fill="#1a1a1a"/>
  <!-- Radiating lines -->
  <line x1="16" y1="2" x2="16" y2="7" stroke="#d4c9a8" stroke-width="1.2"/>
  <line x1="16" y1="25" x2="16" y2="30" stroke="#d4c9a8" stroke-width="1.2"/>
  <line x1="2" y1="16" x2="7" y2="16" stroke="#d4c9a8" stroke-width="1.2"/>
  <line x1="25" y1="16" x2="30" y2="16" stroke="#d4c9a8" stroke-width="1.2"/>
  <line x1="5.1" y1="5.1" x2="8.6" y2="8.6" stroke="#d4c9a8" stroke-width="1"/>
  <line x1="23.4" y1="23.4" x2="26.9" y2="26.9" stroke="#d4c9a8" stroke-width="1"/>
  <line x1="26.9" y1="5.1" x2="23.4" y2="8.6" stroke="#d4c9a8" stroke-width="1"/>
  <line x1="5.1" y1="26.9" x2="8.6" y2="23.4" stroke="#d4c9a8" stroke-width="1"/>
  <!-- Outer gear teeth -->
  <circle cx="16" cy="16" r="10" fill="none" stroke="#d4c9a8" stroke-width="1.8"/>
  <rect x="14.5" y="4.5" width="3" height="3" rx="0.5" fill="#d4c9a8"/>
  <rect x="14.5" y="24.5" width="3" height="3" rx="0.5" fill="#d4c9a8"/>
  <rect x="4.5" y="14.5" width="3" height="3" rx="0.5" fill="#d4c9a8"/>
  <rect x="24.5" y="14.5" width="3" height="3" rx="0.5" fill="#d4c9a8"/>
  <rect x="7" y="7" width="2.5" height="2.5" rx="0.5" fill="#d4c9a8" transform="rotate(45 8.25 8.25)"/>
  <rect x="22.5" y="22.5" width="2.5" height="2.5" rx="0.5" fill="#d4c9a8" transform="rotate(45 23.75 23.75)"/>
  <rect x="22.5" y="7" width="2.5" height="2.5" rx="0.5" fill="#d4c9a8" transform="rotate(45 23.75 8.25)"/>
  <rect x="7" y="22.5" width="2.5" height="2.5" rx="0.5" fill="#d4c9a8" transform="rotate(45 8.25 23.75)"/>
  <!-- Inner circle -->
  <circle cx="16" cy="16" r="5.5" fill="#1a1a1a" stroke="#d4c9a8" stroke-width="1.5"/>
  <!-- Center dot -->
  <circle cx="16" cy="16" r="2" fill="#d4c9a8"/>
</svg>
